<?xml version="1.0" encoding="utf-8"?>
<!-- Generator: Adobe Illustrator 25.2.0, SVG Export Plug-In . SVG Version: 6.00 Build 0)  -->
<svg version="1.1" id="Layer_1" xmlns="http://www.w3.org/2000/svg" xmlns:xlink="http://www.w3.org/1999/xlink" x="0px" y="0px"
	 viewBox="0 0 1080 1080" style="enable-background:new 0 0 1080 1080;" xml:space="preserve">
<style type="text/css">
	.st0{fill:none;stroke:#E6FDFF;stroke-width:1.6484;stroke-miterlimit:10;}
	.st1{fill:#E6FDFF;}
	.st2{opacity:0.15;fill:#1F3C88;enable-background:new    ;}
	.st3{fill:#EE6F57;}
	.st4{fill:#F9B384;}
	.st5{fill:#B35341;}
	.st6{fill:#708CD5;}
	.st7{fill:#102048;}
	.st8{fill:#E28B6D;}
	.st9{opacity:0.4;fill:#1F3C88;enable-background:new    ;}
	.st10{fill:#1F3C88;}
	.st11{fill:#FFFFFF;}
	.st12{fill:#FBC343;}
	.st13{fill:#C89B35;}
	.st14{fill:none;stroke:#E28B6D;stroke-width:1.5049;stroke-miterlimit:10;}
	.st15{fill:#D3DFFF;}
	.st16{opacity:0.1;fill:#1F3C88;enable-background:new    ;}
</style>
<path class="st0" d="M827,613.2c7.9-5.6,16.1-10.8,24.7-15.2c44.6-22.9,86.3-46.4,121.1-82.5c41.2-42.7,70.1-100.4,70.1-161
	c0-60.5-32.6-122.6-86.2-147.7c-66.8-31.3-143.1-1.5-215.8,6c-93.7,9.7-186.8-18.9-279.2-38.5c-92.4-19.7-192.9-29.7-276.8,13.6
	C117.5,222.7,67.7,291.7,54.7,368.7s11.1,159.9,63,217.4c75,82.9,192.9,105.2,302.3,110.5c80.6,3.9,161.4,1.1,241.5-8.4
	c36.1-4.3,69.9-11.6,101.8-29.6C786.1,645.7,805.7,628.1,827,613.2z"/>
<path class="st1" d="M330.8,689.1c-56.3-6.7-112.9-20.3-162.7-50.1S75.9,561.7,59.3,503.5s-3.5-126.8,39.2-165.6
	c53.1-48.3,131.7-40.6,200.8-53.3c89.1-16.3,167.2-69.2,247.1-113.4s169.9-81.3,259.2-62.6c71.9,15.1,136.7,67.8,169.8,138.3
	c33,70.4,33.5,156.8,1.3,226.2c-46.5,100.2-149.3,153.9-248.7,188.9c-73.3,25.8-148.7,45.2-225.1,58c-28.1,4.7-56.8,8.5-85.1,4.1
	s-56.6-18.1-74.1-42.6L330.8,689.1z"/>
<path class="st2" d="M770.3,860.9c0-14.9-132.6-27-296.2-27S178,846.1,178,860.9c0,12.1,87.2,22.3,207.5,25.7
	c13.1,21.5-8.8,47.2-25.5,56.5c-29.4,1.5-50.5,4.7-47.2,11.7c15.7,33,149.3-2.1,149.3-2.1s52.2,3.2,52.2-1.7c0-2.3-9.2-4.4-24.3-6
	l1.1-0.1l-56.4-57.3c12.9,0.2,26.1,0.2,39.5,0.2C637.7,887.9,770.3,875.8,770.3,860.9z"/>
<path class="st3" d="M796.5,663c-3.9,64.4-36.4,128.8-89.6,164.2c-63.5,42.2-152.2,32.9-224.4,38.3c-62.5,4.7-125.4,8.7-187.9,2
	c-51.2-5.5-102.9-25.7-127.3-75.5c-24.5-49.8-27.2-116-2.6-166.5c7.8-16.1,18.3-30.4,30.6-42.9c2-2,4.1-4,6.2-6
	c1.4-1.3,2.9-2.6,4.4-3.9c2.2-2,4.6-3.9,6.9-5.7c0.8-0.6,1.6-1.2,2.4-1.8c0.8-0.6,1.6-1.2,2.4-1.8s1.6-1.2,2.4-1.8
	c0.6-0.4,1.2-0.9,1.8-1.3c1-0.7,2-1.4,3.1-2.1c9.1-6.2,18.7-11.6,28.7-16.2c9.7-4.6,19.6-8.4,29.6-11.5
	c32.9-10.2,67.2-13.8,101.1-18.3c72-9.4,145.3-12.7,217.8-12.6c59.2,0,125.9,8.9,165.5,59.7C789.5,588.1,798.7,626.3,796.5,663z"/>
<path class="st4" d="M668,553.2c0,0,14.5-13.6,22.2-21.5s-9.1-8.1-17.3,1.7C664.6,543.2,668,553.2,668,553.2z"/>
<path class="st5" d="M253.2,542.1c-9.9,4.7-19.5,10.1-28.7,16.2c-1,0.7-2.1,1.4-3.1,2.1c-0.6,0.4-1.2,0.9-1.8,1.3
	c-0.8,0.6-1.6,1.2-2.4,1.8s-1.6,1.2-2.4,1.8c-0.8,0.6-1.6,1.2-2.4,1.8c-2.3,1.8-4.6,3.7-6.8,5.7l-0.1,0c-1.5,1.3-2.9,2.6-4.4,3.9
	c-2.1,2-4.2,4-6.2,6c0.2,1.7,1.3,3.3,3.1,3.7c11.9,2.4,17.9,13.8,27.5,20.2c7.1,4.8,15.6,6.1,23.6,3.4c-8.7,18.4-13.5,36.6-9.7,57.2
	c1.1,6.2,3.1,12.3,5.8,18c-11.2-8.3-21.9-26-26.3-44c-0.6-2.5-3.2-4.2-5.8-3.5c-2.6,0.6-4.1,3.2-3.5,5.8
	c5.5,22.3,19.4,43.7,33.9,52.1c3.4,2,6.9,3.3,10.4,3.8c2.9,3.7,6.1,7.1,9.6,10.2l21.4,6l17.5-112.7L253.2,542.1z"/>
<path class="st6" d="M315.3,617.8c-44.2-17.2-74.9-35.5-92.8-47.8c-11.6-7.9-17.4-21.8-15-35.7l22.8-133
	c2.4-13.7,11.4-25.3,24.2-30.8c36.6-15.7,72.2-24.7,103.7-29c0,0,17.6-1.4,40.1,0.8c14.8,1.5,48.6,11.4,70.1,18.1
	c12.1,3.8,21.9,12.9,26.5,24.7c9,23.2,23.7,62.5,28.3,83.7c16.1,73.3,13.5,67.9,13.5,67.9l16.7,112.7l-177,9.9l-45.2-20.6
	L315.3,617.8z"/>
<path class="st7" d="M424.8,215.1c0,0-15.7-32.1-57.3-17.5c-30.2-6.6-53.2,29.2-31,77.8l41.9,9.7L424.8,215.1z"/>
<path class="st4" d="M402.5,305.9v56.9c0,13.3-10.8,24.1-24.1,24.1c-18,0-32.6-14.6-32.6-32.6v-48.3L402.5,305.9L402.5,305.9z"/>
<path class="st8" d="M402.5,329.5v31c-25.3,0.1-42.1-32.6-42.1-32.6L402.5,329.5z"/>
<path class="st4" d="M427.6,298.8c-1.5,7.9-3.7,15.9-6.8,23c-5.5,12.5-13.8,22-26.5,22.2c-29.8,0.6-52.8-40.1-52.8-40.1l4.8-55.6
	l22.6-25.4l62.3,38.5C431.1,261.5,431.3,279.6,427.6,298.8z"/>
<path class="st7" d="M345.2,287.7c0,0,6.1-25,27.6-41.3c0,0,31.1,40.7,64.1,21s18.6-58.3-12.1-52.4l-35.3-4l-44.2,14.1l-7.5,34.7
	L345.2,287.7z"/>
<path class="st9" d="M376.5,575.8c-30-64.9-67.8-33.9-77.1-57.7c-13-33.4-10.5-71.1-10.6-82.5l-18.1,101.8c0,0,40.4,3.8,55.3,28.1
	L376.5,575.8z"/>
<path class="st10" d="M289.7,433.8c-1.1,8.7-2.5,17.4-3.8,26c-1.3,8.7-2.9,17.3-4.3,26c-1.5,8.6-3.1,17.3-4.8,25.9l-2.6,12.9
	c-0.9,4.3-1.8,8.6-2.8,12.9l-1.3-0.2c0.5-4.4,1.2-8.7,1.8-13l2-13c1.4-8.7,2.8-17.3,4.4-25.9c1.6-8.6,3.1-17.3,4.8-25.9
	c1.7-8.6,3.4-17.2,5.4-25.8L289.7,433.8z"/>
<path class="st10" d="M465.1,417.7c2.4,11.3,4.6,22.6,6.8,34c2.2,11.3,4.2,22.7,6.3,34.1c2,11.4,4,22.8,5.9,34.2l2.8,17.1
	c0.9,5.7,1.8,11.4,2.6,17.2l-1.2,0.2c-1.2-5.7-2.4-11.3-3.5-17l-3.3-17c-2.1-11.4-4.2-22.7-6.3-34.1c-1.9-11.4-4-22.8-5.9-34.2
	c-1.9-11.4-3.7-22.8-5.4-34.2L465.1,417.7z"/>
<path class="st9" d="M473.5,470.2c2.1,20.6-1.1,127.5-50.8,129.1l0.5,23.3l78.3-4.8L473.5,470.2z"/>
<path class="st8" d="M371.2,596.4c35.3-15.1,42.1-14.5,46.8-14.3c16.3,0.8,39.7,33.3,39.7,33.3l-0.4,6H368L371.2,596.4z"/>
<rect x="397.1" y="615.6" class="st11" width="109.9" height="16.7"/>
<polygon class="st12" points="656.5,632.2 465.5,632.2 508.4,461.6 699.4,461.6 "/>
<path class="st13" d="M673.8,562.5c-18.9-2.8-80-15.5-205.9,61.2l-2.9,10.6l191.5-2L673.8,562.5z"/>
<g>
	<path class="st4" d="M670.7,597c-1.1,7.6-1.5,18.8-25.1,17.4l-7-3.6l6.6-7.2l14.2-7.2L670.7,597z"/>
	<path class="st4" d="M672.9,576.5c0,0,12.9,16.9-0.1,22.1c-14.1,5.6-27.7,5.1-27.7,5.1c6-16.9,25.6-15.8,25.6-15.8L672.9,576.5z"/>
	<path class="st4" d="M673.3,565.6c0,0,17.8,16.5,1.2,21.2c-23.4,6.5-30.6,7-30.6,7c-1.2-12.4,22-20.4,22-20.4L673.3,565.6z"/>
	<path class="st4" d="M669.6,551.1c0,0,24.3,14.8,1.5,23.1c-22.8,8.3-28.2,8.2-28.2,8.2c-1.2-12.4,23.2-16.7,23.2-16.7L669.6,551.1z
		"/>
	<path class="st14" d="M642.9,582.4c0,0,26.5-3.8,34.4-10.2"/>
	<path class="st14" d="M643.9,593.8c0,0,27.6-3.9,36.2-9.9"/>
	<path class="st14" d="M645.2,603.6c0,0,16.4,0.6,25.6-4"/>
</g>
<path class="st7" d="M379.5,857.5c2.9-1.6,48.9,8.5,100-29.4l-65.9-18.8L379.5,857.5z"/>
<path class="st5" d="M672,639c2.2-3.1,4.1-7.7,1.3-10.4c-2.9-2.8-7.6-0.3-10.6,2.3c-5.3,4.6-10.1,9.6-14.6,14.9l-111.2,20.7
	l-152.4,37l26.2,33.4c76.2,5.6,119.6,7,167.2-1.4c24.3-4.3,46-8.7,62.2-21.9c3.9-3.2,7.5-8.5,5-12.8c-1.7-2.9-5.2-3.7-8.8-3.6
	c8.1-1.9,16-4.7,23.5-8.4c3.3-1.6,7.1-4.2,7-7.9c0-2.7-2.2-4.9-4.7-5.9c-2.5-1-5.2-0.9-7.9-0.7c-10.2,0.8-20.2,3-29.7,6.6
	C642.1,668.8,659.8,656.3,672,639z M624.5,681.1C624.5,681.1,624.5,681.1,624.5,681.1c0.1-0.1,0.2-0.1,0.2-0.1
	C624.7,681,624.6,681.1,624.5,681.1z"/>
<path class="st7" d="M416.8,653.5c0,0,148.4-70.6,196.8-67.5c48.4,3.2,46.8,63.5,28.6,89.7s-61.1,61.1-219,50.8L416.8,653.5z"/>
<path class="st15" d="M491.1,945c-8,2.3-19.4,2.8-35.1,0.3c0,0-20.3,5.3-40.3,9.4c-13.5,2.8-26.9,5.1-33.8,4.9c-0.6,0-1.2,0-1.8-0.1
	c-13.1-0.9-29.7-7.8-38.4-17.5c0,0,0-0.1-0.1-0.1c-2.4-2.7-4.2-5.6-5.2-8.7c-4.8-14.8,5.3-32.8,59.8-29.1c0,0,18-4.2,22.2-17.5
	c4.2-13.2-27-76.7-27-76.7l44.4-30.2l43.6,48.4c0,0,6.6,43.7,6.6,57.9c0,0,18.5,26.5,21.2,38.1C509,931.6,505.3,941,491.1,945z"/>
<path class="st10" d="M241.2,543c5.1-2,10.3-3.5,15.5-5c2.6-0.7,5.3-1.4,8-1.9c1.3-0.3,2.7-0.5,4.1-0.7c0.7-0.1,1.4-0.2,2.1-0.2
	c0.8,0,1.5,0,2.2,0c5.7,0.6,10.9,2.4,16,4.3c5.1,2,10.1,4.1,15,6.5c4.9,2.3,9.7,4.9,14.4,7.6c4.7,2.7,9.4,5.6,13.9,8.6
	c9,6.2,17.6,13,25,21l-0.9,0.9c-4-3.6-8.1-7-12.5-10.2c-4.3-3.2-8.7-6.3-13.3-9.2c-9-5.9-18.5-11-28.1-15.8
	c-4.8-2.4-9.7-4.6-14.7-6.5c-5-1.9-10.1-3.8-15.1-4.5c-0.6-0.1-1.2-0.1-1.8-0.1c-0.6,0-1.3,0.1-1.9,0.2c-1.3,0.1-2.6,0.3-3.9,0.6
	c-2.6,0.5-5.3,1-7.9,1.6c-5.2,1.2-10.5,2.6-15.6,4.2L241.2,543z"/>
<path class="st5" d="M267.6,750.8c17.9-1.2,35.4,0.1,48.1-4.4c13.6-4.8,49.2-1.6,49.2-1.6l-19.6-28.2L266,736.5L267.6,750.8z"/>
<path class="st10" d="M268.4,698.8c-18.2-29.4-18.2-87.3,4.8-113.5c26.3-29.9,82.5-41.3,111.9-6.3c29.4,34.9,83.3,162.7,94.4,249.2
	c0,0-59.5-19.8-100,29.4c0,0-53.2-121.4-64.3-165.9l-30.2,23.8L268.4,698.8z"/>
<path class="st15" d="M315.3,691.6c0,0-7.9-2.9-19,4.5c0,0-86.8-1.8-106.1,17.7c-19.3,19.6-4.5,45.8,23.8,48.7
	c23.8,2.4,69.9-16,84.1-22c2.9-1.2,6-2,9.1-2.2l23.5-1.5L315.3,691.6z"/>
<path class="st4" d="M349.9,289.3c0,0-5.8-19.3-18.6-14.5s-6,29.9,19.3,36.9L349.9,289.3z"/>
<path class="st10" d="M336.3,395.7c6.3,4.5,13,8.3,20.2,11c7.1,2.7,14.7,4.4,22.2,4.2c7.5-0.1,15-2,21.7-5.4l2.5-1.3
	c0.8-0.5,1.6-1,2.4-1.5c1.6-1.1,3.2-2,4.6-3.4l2.2-1.8l1.1-0.9c0.4-0.3,0.7-0.7,1-1c1.4-1.4,2.7-2.7,4.1-4l1,0.8
	c-1.2,1.5-2.5,3-3.8,4.5c-0.3,0.4-0.6,0.8-1,1.1l-1.1,1l-2.2,2c-1.4,1.4-3,2.5-4.6,3.7c-0.8,0.6-1.6,1.2-2.4,1.7l-2.6,1.5
	c-7,3.9-15,6-23,6.1c-8,0-16-1.7-23.3-4.9c-7.3-3.1-14-7.4-20-12.5L336.3,395.7z"/>
<path class="st7" d="M302.1,641L309,665c2.3,8,4.5,16,7,24c2.4,8,4.8,16,7.3,23.9c1.3,4,2.5,8,3.9,11.9c0.7,2,1.3,4,2,5.9
	c0.7,2,1.4,3.9,2.1,5.9l-1.1,0.5c-1.8-3.8-3.4-7.6-5-11.5c-1.6-3.9-3-7.8-4.4-11.8c-2.8-7.9-5.3-15.9-7.7-23.9
	c-2.3-8-4.5-16.1-6.5-24.2c-2-8.1-3.9-16.2-5.5-24.5L302.1,641z"/>
<path class="st16" d="M491.1,945c-8,2.3-19.4,2.8-35.1,0.3c0,0-33.6,8.6-54.8,12c21.8-4.4,53.6-31.3,50-48.4
	C482.5,919.2,491,934.9,491.1,945z"/>
<path class="st9" d="M406.7,948c-4,5-10.1,8.4-16.4,10.1c-3.3,0.9-6.7,1.4-10.2,1.5c-13.1-0.9-29.7-7.8-38.4-17.5c0,0,0-0.1-0.1-0.1
	c-0.9-1.3-1.8-2.6-2.6-4c4.7,4.3,9.8,7.9,15.2,10.6c2.8,1.3,5.5,2.6,8.4,3.4c1.4,0.5,2.9,0.9,4.4,1.3c1.4,0.4,3,0.6,4.4,0.9
	C383.4,956.1,396,954.9,406.7,948z"/>
<path class="st8" d="M344.1,292c-0.3-1.7-1.1-3.4-2.1-4.8c-1-1.5-2.1-2.8-3.5-3.8c-1.4-1-2.8-1.4-4.1-0.8c-1.3,0.6-2.3,2.2-3.2,3.8
	l-0.9-0.3c0.4-1.9,1.1-4,3-5.3c1-0.7,2.3-0.9,3.5-0.7c1.2,0.2,2.2,0.7,3,1.3c1.7,1.3,3,2.9,3.9,4.7c0.9,1.8,1.5,3.8,1.2,5.9
	L344.1,292z"/>
<path class="st7" d="M419.7,291.6c-0.6,2.7-2.6,4.6-4.6,4.2c-2-0.4-3.1-3-2.6-5.7c0.6-2.7,2.6-4.6,4.6-4.2S420.2,288.8,419.7,291.6z
	"/>
<ellipse transform="matrix(0.1609 -0.987 0.987 0.1609 37.1895 623.2287)" class="st7" cx="385.1" cy="289.7" rx="5.1" ry="3.7"/>
<path class="st8" d="M401.9,294.1c0.2,2.2,0.3,4.5,0.3,6.7c0.1,0.8,0.5,1.6,1.2,2.3c0.7,0.8,1.5,1.5,2.3,2.6
	c0.4,0.5,0.7,1.2,0.8,1.9c0.2,0.7,0.2,1.4,0.1,2c-0.1,1.3-0.6,2.6-1.5,3.7c-0.4,0.5-1,1-1.6,1.3c-0.6,0.3-1.4,0.5-2,0.4
	c-1.4-0.1-2.5-0.6-3.5-1.3l0.4-0.8c1,0.3,2,0.6,3,0.4c0.9-0.1,1.6-0.6,2.1-1.3c1-1.5,1.1-3.7,0.2-5.1c-0.5-0.8-1.3-1.5-2.1-2.5
	c-0.8-0.9-1.5-2.3-1.5-3.7c0.2-2.3,0.5-4.6,0.8-6.8L401.9,294.1z"/>
<path class="st7" d="M376.3,280.8c1.3-1.3,2.8-2.3,4.5-3.1c1.7-0.8,3.6-1.2,5.5-1.1c1.9,0.1,3.8,0.8,5.3,2c1.5,1.1,2.7,2.6,3.6,4.1
	l-0.7,0.6c-1.3-1.1-2.6-2.2-4-3s-2.9-1.2-4.4-1.4c-3.1-0.2-6.2,1-9.3,2.5L376.3,280.8z"/>
<path class="st7" d="M408.6,283.5c0.5-1.7,1.9-3,3.5-3.8c1.6-0.8,3.3-1.2,5.1-1.1c1.7,0,3.5,0.5,5,1.4c1.5,0.9,2.8,2.2,3.4,3.8
	l-0.8,0.5c-2.2-2.2-4.9-3.2-7.7-3.3c-2.8-0.1-5.8,0.7-7.6,3L408.6,283.5z"/>
<path class="st11" d="M386.9,320.8l21,1.5C408,322.3,396.2,337.9,386.9,320.8z"/>
</svg>
